<?xml version="1.0" standalone="no"?>
<!DOCTYPE svg PUBLIC "-//W3C//DTD SVG 20010904//EN"
 "http://www.w3.org/TR/2001/REC-SVG-20010904/DTD/svg10.dtd">
<svg version="1.0" xmlns="http://www.w3.org/2000/svg"
 width="124.000000pt" height="124.000000pt" viewBox="0 0 124.000000 124.000000"
 preserveAspectRatio="xMidYMid meet">
<metadata>
Created by potrace 1.14, written by Peter Selinger 2001-2017
</metadata>
<g transform="translate(0.000000,124.000000) scale(0.100000,-0.100000)"
fill="#000000" stroke="none">
<path d="M577 1143 c-11 -11 -17 -13 -17 -5 0 7 -7 12 -15 12 -12 0 -15 -10
-13 -40 2 -41 20 -54 33 -22 6 16 7 16 19 0 14 -18 36 -24 36 -10 0 5 -6 17
-14 28 -13 17 -12 21 1 37 13 14 14 17 2 17 -8 0 -22 -8 -32 -17z"/>
<path d="M697 1143 c-2 -4 -8 -22 -11 -40 -8 -36 10 -55 22 -23 8 21 8 21 20
-4 12 -27 38 -37 28 -11 -3 9 0 25 6 35 8 13 9 23 3 29 -14 14 -62 24 -68 14z
m43 -23 c0 -5 -4 -10 -10 -10 -5 0 -10 5 -10 10 0 6 5 10 10 10 6 0 10 -4 10
-10z"/>
<path d="M448 1133 c-10 -2 -18 -8 -18 -12 0 -8 21 -73 25 -79 1 -1 16 3 33 9
38 13 43 32 7 23 -15 -4 -25 -2 -25 5 0 6 9 11 21 11 12 0 17 4 13 11 -3 6
-15 9 -25 6 -11 -3 -19 -1 -19 4 0 5 9 9 20 9 11 0 20 5 20 10 0 10 -21 11
-52 3z"/>
<path d="M368 1094 c-33 -17 -32 -14 -12 -58 l17 -34 33 15 c18 9 31 20 28 25
-3 4 -14 4 -24 -2 -11 -6 -21 -6 -25 -1 -3 5 4 12 15 16 11 4 18 11 15 16 -4
5 -14 5 -26 -1 -24 -13 -25 -2 -2 16 26 19 12 24 -19 8z"/>
<path d="M792 1098 c-39 -39 17 -100 58 -63 34 31 20 75 -25 75 -12 0 -26 -5
-33 -12z m48 -27 c0 -24 -11 -32 -28 -22 -16 10 -5 41 14 41 8 0 14 -9 14 -19z"/>
<path d="M892 1044 c-29 -20 -28 -50 3 -70 24 -16 27 -16 45 1 25 23 25 47 2
68 -23 21 -22 21 -50 1z m42 -22 c9 -15 -12 -35 -29 -28 -14 5 -15 9 -5 21 14
17 26 19 34 7z"/>
<path d="M272 1030 l-24 -20 24 -29 c22 -28 48 -41 48 -23 0 4 -6 14 -12 21
-11 11 -8 12 14 7 28 -6 50 10 25 20 -8 3 -17 14 -20 25 -6 24 -25 24 -55 -1z
m28 -16 c0 -8 -5 -12 -10 -9 -6 4 -8 11 -5 16 9 14 15 11 15 -7z"/>
<path d="M545 1024 c-194 -48 -317 -197 -318 -384 0 -94 22 -163 73 -231 180
-240 534 -210 666 57 31 63 38 87 40 149 6 167 -85 316 -233 381 -54 24 -180
40 -228 28z"/>
<path d="M967 965 c-16 -14 -25 -30 -22 -36 5 -7 14 -4 28 8 20 18 20 18 4 -8
-20 -30 -13 -43 17 -27 21 11 21 11 2 -11 -16 -17 -16 -21 -4 -21 8 0 27 9 41
20 33 26 26 53 -12 43 -23 -6 -25 -5 -12 10 13 16 9 47 -6 47 -4 0 -21 -12
-36 -25z"/>
<path d="M197 949 c-32 -45 22 -91 63 -54 26 23 25 40 -2 59 -30 21 -44 20
-61 -5z m38 -9 c-5 -15 -3 -18 9 -14 12 5 15 2 10 -10 -7 -18 -7 -18 -28 -10
-19 7 -21 25 -4 42 17 17 20 15 13 -8z"/>
<path d="M88 811 c-31 -52 -33 -60 -33 -147 1 -51 -3 -90 -7 -88 -9 6 -6 -11
13 -88 10 -41 99 -159 113 -151 4 3 12 -1 17 -8 13 -20 11 -31 -3 -23 -7 4 -2
-6 12 -21 42 -49 92 -95 102 -95 6 0 23 -11 40 -25 35 -29 41 -30 62 -9 15 14
16 14 16 -2 0 -14 2 -15 17 -3 11 9 14 10 9 2 -5 -9 0 -13 16 -12 13 0 37 -4
53 -9 l30 -10 -30 -3 c-16 -1 -40 -3 -52 -3 -27 -1 -32 -16 -10 -30 11 -7 31
-6 64 3 62 18 127 18 180 2 45 -15 97 -8 90 12 -2 7 -12 11 -21 11 -25 -3 -20
33 6 39 31 8 36 -1 7 -11 -22 -9 -22 -9 10 -14 27 -4 40 1 65 22 17 14 46 32
63 39 37 15 99 79 113 117 5 13 14 24 20 24 5 0 10 7 10 15 0 8 6 12 14 9 10
-4 22 9 37 38 12 24 27 50 35 58 7 8 16 38 19 65 4 28 9 53 12 58 2 4 -3 15
-12 24 -13 13 -14 18 -3 24 7 5 8 9 2 9 -6 0 -10 21 -8 54 3 67 -41 171 -72
173 -17 1 -19 -4 -16 -32 4 -36 -12 -75 -31 -75 -20 0 -16 -180 5 -212 14 -22
15 -32 7 -57 -12 -33 -39 -42 -40 -13 0 15 -1 15 -12 -2 -7 -11 -29 -38 -49
-61 -21 -23 -46 -61 -57 -84 -10 -24 -32 -51 -50 -62 -35 -21 -45 -24 -36 -9
8 12 9 13 -47 -4 -25 -8 -48 -12 -51 -10 -2 3 -25 -5 -51 -18 -44 -21 -48 -21
-74 -6 -15 9 -47 19 -72 23 -24 4 -52 11 -62 16 -22 12 -41 12 -33 -1 10 -16
-1 -12 -41 15 -20 14 -42 25 -48 25 -6 0 -13 11 -14 25 -3 38 -25 74 -76 126
-44 45 -45 48 -39 95 4 27 6 67 5 89 -3 137 -3 137 -17 125 -21 -17 -38 24
-32 76 4 36 2 42 -13 41 -11 -1 -33 -25 -52 -56z m19 -230 c-2 -44 -17 -45
-17 -2 0 24 7 41 16 41 2 0 3 -18 1 -39z m77 -76 c-7 -16 -24 -21 -24 -6 0 8
7 13 27 20 1 1 0 -6 -3 -14z m850 -140 c-4 -8 -11 -15 -16 -15 -6 0 -7 7 -4
16 3 9 6 25 7 37 l0 22 9 -23 c5 -12 7 -29 4 -37z m-593 -172 c13 -16 12 -17
-3 -4 -17 13 -22 21 -14 21 2 0 10 -8 17 -17z m359 13 c0 -2 -8 -10 -17 -17
-16 -13 -17 -12 -4 4 13 16 21 21 21 13z m-62 -91 c-2 -2 -15 -1 -28 2 l-25 7
25 6 c22 6 39 -4 28 -15z"/>
</g>
</svg>
