<?xml version="1.0" encoding="UTF-8" standalone="no" ?>
<!DOCTYPE svg PUBLIC "-//W3C//DTD SVG 1.1//EN" "http://www.w3.org/Graphics/SVG/1.1/DTD/svg11.dtd">
<svg xmlns="http://www.w3.org/2000/svg" xmlns:xlink="http://www.w3.org/1999/xlink" version="1.1" width="24" height="24" viewBox="0 0 24 24" xml:space="preserve">
<desc>Created with Fabric.js 3.6.6</desc>
<defs>
</defs>
<g transform="matrix(0.2 0 0 0.2 12.17 12.5)"  >
<g style=""   >
		<g transform="matrix(1 0 0 1 15.75 -5.5)" id="icon-download"  >
<polygon style="stroke: none; stroke-width: 1; stroke-dasharray: none; stroke-linecap: butt; stroke-dashoffset: 0; stroke-linejoin: miter; stroke-miterlimit: 4; fill: rgb(0,0,0); fill-rule: nonzero; opacity: 1;"  points="-27.02,15.28 15.28,-27.03 27.02,-15.29 -15.28,27.03 " />
</g>
		<g transform="matrix(1 0 0 1 0.53 -26.47)" id="icon-download"  >
<rect style="stroke: none; stroke-width: 1; stroke-dasharray: none; stroke-linecap: butt; stroke-dashoffset: 0; stroke-linejoin: miter; stroke-miterlimit: 4; fill: rgb(0,0,0); fill-rule: nonzero; opacity: 1;"  x="-9.5275" y="-30.105" rx="0" ry="0" width="19.055" height="60.21" />
</g>
		<g transform="matrix(1 0 0 1 -14.75 -5.44)" id="icon-download"  >
<polygon style="stroke: none; stroke-width: 1; stroke-dasharray: none; stroke-linecap: butt; stroke-dashoffset: 0; stroke-linejoin: miter; stroke-miterlimit: 4; fill: rgb(0,0,0); fill-rule: nonzero; opacity: 1;"  points="15.3,27.02 -27.03,-15.27 -15.3,-27.02 27.03,15.29 " />
</g>
		<g transform="matrix(1 0 0 1 0.5 48.08)" id="icon-download"  >
<rect style="stroke: none; stroke-width: 1; stroke-dasharray: none; stroke-linecap: butt; stroke-dashoffset: 0; stroke-linejoin: miter; stroke-miterlimit: 4; fill: rgb(0,0,0); fill-rule: nonzero; opacity: 1;"  x="-51.5" y="-8.5" rx="0" ry="0" width="103" height="17" />
</g>
		<g transform="matrix(1 0 0 1 -46 32.58)" id="icon-download"  >
<rect style="stroke: none; stroke-width: 1; stroke-dasharray: none; stroke-linecap: butt; stroke-dashoffset: 0; stroke-linejoin: miter; stroke-miterlimit: 4; fill: rgb(0,0,0); fill-rule: nonzero; opacity: 1;"  x="-8.5" y="-24" rx="0" ry="0" width="17" height="48" />
</g>
		<g transform="matrix(1 0 0 1 46 32.58)" id="icon-download"  >
<rect style="stroke: none; stroke-width: 1; stroke-dasharray: none; stroke-linecap: butt; stroke-dashoffset: 0; stroke-linejoin: miter; stroke-miterlimit: 4; fill: rgb(0,0,0); fill-rule: nonzero; opacity: 1;"  x="-8.5" y="-24" rx="0" ry="0" width="17" height="48" />
</g>
</g>
</g>
</svg>